<svg xmlns="http://www.w3.org/2000/svg" viewBox="0 0 257.503 67.702"><defs><style>.a{fill:#6dcff6;}.b{fill:#808285;}.c{fill:#58595b;}.d{fill:#0088b5;}.e{fill:#00b3ef;}</style></defs><g transform="translate(-23.6 -14.6)"><rect class="a" width="3.787" height="16.887" transform="translate(260.378 14.702)"/><rect class="b" width="3.992" height="16.887" transform="translate(264.165 14.702)"/><rect class="c" width="4.861" height="16.887" transform="translate(268.156 14.702)"/><rect class="d" width="2.968" height="16.887" transform="translate(273.018 14.702)"/><rect class="a" width="1.177" height="16.887" transform="translate(275.986 14.702)"/><path class="b" d="M267.552,82.72V70.8c0-4.35-2.252-6.857-5.936-6.857-3.377,0-6.345,2.61-6.345,7.062V82.669h-1.945V70.695c0-4.2-2.3-6.755-5.885-6.755s-6.4,3.173-6.4,7.215V82.72H239.1V62.661h1.945v3.582c1.279-2.1,3.122-4.043,6.7-4.043a7.146,7.146,0,0,1,6.755,4.35,7.957,7.957,0,0,1,7.215-4.35c4.759,0,7.727,3.326,7.727,8.392V82.772h-1.893Z" transform="translate(-105.222 -23.242)"/><path class="b" d="M315.776,81.292a9.049,9.049,0,0,0,6.908-3.173l1.331,1.177a10.568,10.568,0,0,1-8.29,3.787c-5.271,0-9.825-4.2-9.825-10.49v-.1c0-5.834,4.094-10.49,9.518-10.49,5.629,0,9.211,4.554,9.211,10.49v.1a3.625,3.625,0,0,1-.051.716H307.947C308.254,78.375,311.836,81.292,315.776,81.292Zm6.755-9.621c-.256-4.043-2.61-7.778-7.215-7.778-3.991,0-7.062,3.326-7.42,7.778Z" transform="translate(-137.838 -23.144)"/><path class="b" d="M361.9,82.867V79.541a9.081,9.081,0,0,1-7.676,3.838c-3.736,0-7.727-2.149-7.727-6.294v-.1c0-4.2,3.582-6.55,8.751-6.55a24.119,24.119,0,0,1,6.653.87v-.87c0-4.043-2.456-6.141-6.6-6.141a13.055,13.055,0,0,0-6.294,1.638l-.716-1.689A16.044,16.044,0,0,1,355.4,62.5c5.168,0,8.392,2.661,8.392,7.881V82.918H361.9Zm.051-9.774a27.6,27.6,0,0,0-6.806-.921c-4.247,0-6.6,1.893-6.6,4.708v.1c0,2.917,2.763,4.606,5.834,4.606,4.094,0,7.574-2.507,7.574-6.192Z" transform="translate(-157.662 -23.388)"/><path class="b" d="M394.839,83.179a13.781,13.781,0,0,1-8.239-2.917l1.126-1.535a11.854,11.854,0,0,0,7.215,2.661c2.712,0,4.861-1.484,4.861-3.838v-.1c0-2.354-2.507-3.224-5.322-3.992-3.275-.921-6.908-1.945-6.908-5.527v-.1c0-3.224,2.712-5.527,6.6-5.527a13.536,13.536,0,0,1,7.113,2.2l-1.023,1.638a11.4,11.4,0,0,0-6.192-2c-2.763,0-4.554,1.484-4.554,3.48v.1c0,2.252,2.712,3.07,5.578,3.889,3.224.921,6.6,2.1,6.6,5.629v.1C401.8,80.876,398.728,83.179,394.839,83.179Z" transform="translate(-177.241 -23.29)"/><path class="b" d="M438.95,83.16V79.424a7.84,7.84,0,0,1-7.215,4.2c-5.066,0-8.034-3.48-8.034-8.239V63.1h1.945V75.023c0,4.145,2.3,6.857,6.4,6.857A6.86,6.86,0,0,0,439,74.716V63.1h1.945V83.16Z" transform="translate(-195.356 -23.681)"/><path class="b" d="M478.444,64.592c-4.657,0-8.7,3.48-8.7,10.03v8.239H467.8V62.8h1.945v5.731c1.586-3.582,4.913-6.192,8.9-6.038v2.149h-.2Z" transform="translate(-216.889 -23.382)"/><path class="b" d="M500.076,81.292a9.049,9.049,0,0,0,6.908-3.173l1.33,1.177a10.567,10.567,0,0,1-8.29,3.787c-5.271,0-9.825-4.2-9.825-10.49v-.1c0-5.834,4.094-10.49,9.518-10.49,5.629,0,9.211,4.554,9.211,10.49v.1a3.627,3.627,0,0,1-.051.716H492.247C492.554,78.375,496.136,81.292,500.076,81.292Zm6.7-9.621c-.256-4.043-2.61-7.778-7.215-7.778-3.992,0-7.062,3.326-7.42,7.778Z" transform="translate(-227.826 -23.144)"/><rect class="d" width="9.467" height="16.887" transform="translate(250.911 14.702)"/><rect class="b" width="33.57" height="16.887" transform="translate(217.29 14.702)"/><g transform="translate(23.6 14.6)"><path class="e" d="M83.47,59.8c-6.806,0-11.77,5.066-11.77,11.156v.1c0,6.038,4.913,11.053,11.667,11.053,6.857,0,11.821-5.066,11.821-11.156v-.1C95.188,64.815,90.276,59.8,83.47,59.8Zm4.5,11.207a4.494,4.494,0,0,1-4.5,4.708,4.582,4.582,0,0,1-4.5-4.81v-.1a4.467,4.467,0,0,1,4.452-4.759A4.637,4.637,0,0,1,87.973,70.9v.1Z" transform="translate(-47.086 -36.67)"/><path class="e" d="M180.326,73.544,176.078,60.7H168.3l8.341,20.879a1.993,1.993,0,0,1-1.791.87,7.317,7.317,0,0,1-3.275-1.126l-2.3,5.22a13.366,13.366,0,0,0,6.806,1.842c4.247,0,6.243-1.945,8.085-6.908L191.942,60.7h-7.676Z" transform="translate(-94.252 -37.109)"/><path class="e" d="M23.651,14.6V30.771H23.6V59.479h7.471v-2.61a7.951,7.951,0,0,0,6.5,3.07c5.015,0,9.416-4.2,9.416-11.156v-.1c0-6.806-4.35-11-9.467-11a7.755,7.755,0,0,0-6.448,3.326V31.589H88.846V40.8a7.951,7.951,0,0,0-6.5-3.07c-5.015,0-9.416,4.2-9.416,11.156v.1c0,6.806,4.35,11,9.467,11a7.755,7.755,0,0,0,6.448-3.326v2.815h7.471V31.589h37.561V14.7ZM89,48.886c0,2.815-1.945,4.861-4.35,4.861s-4.35-2-4.35-4.861v-.1c0-2.815,1.945-4.861,4.35-4.861,2.456,0,4.35,2.047,4.35,4.861ZM35.267,43.973c2.405,0,4.35,2,4.35,4.861v.1c0,2.866-1.945,4.861-4.35,4.861-2.456,0-4.35-2-4.35-4.861v-.1C30.918,45.969,32.862,43.973,35.267,43.973Z" transform="translate(-23.6 -14.6)"/></g><rect class="c" width="83.412" height="16.887" transform="translate(133.878 14.702)"/><rect class="b" width="3.787" height="16.887" transform="translate(277.163 14.702)"/><g transform="translate(23.6 64.801)"><path class="b" d="M23.6,120.656h1.535v1.689A3.7,3.7,0,0,1,28.41,120.4a3.457,3.457,0,0,1,3.275,2.047,4.024,4.024,0,0,1,3.582-2.047c2.354,0,3.787,1.586,3.787,4.094v6.294H37.519v-5.936c0-1.945-.972-3.07-2.61-3.07a2.832,2.832,0,0,0-2.815,3.122v5.834H30.56V124.75c0-1.893-1.023-3.019-2.61-3.019a2.952,2.952,0,0,0-2.815,3.224v5.783H23.6V120.656Z" transform="translate(-23.6 -116.46)"/><path class="b" d="M57.3,125.822h0c0-2.968,2.047-5.322,4.861-5.322,3.019,0,4.759,2.405,4.759,5.373v.512H58.835a3.547,3.547,0,0,0,3.582,3.429,4.323,4.323,0,0,0,3.224-1.433l.921.87a5.274,5.274,0,0,1-4.2,1.893A5.139,5.139,0,0,1,57.3,125.822Zm8.085-.614c-.154-1.842-1.228-3.48-3.224-3.48a3.447,3.447,0,0,0-3.275,3.48Z" transform="translate(-40.055 -116.508)"/><path class="b" d="M78.3,127.969h0c0-2.2,1.791-3.326,4.35-3.326a11,11,0,0,1,3.122.409v-.358c0-1.842-1.126-2.763-3.019-2.763a6.65,6.65,0,0,0-3.07.768l-.461-1.228a8.324,8.324,0,0,1,3.684-.87,4.317,4.317,0,0,1,3.275,1.126,4.091,4.091,0,0,1,1.023,2.968v6.192H85.771v-1.535a4.483,4.483,0,0,1-3.684,1.74C80.193,131.142,78.3,130.016,78.3,127.969Zm7.471-.819v-.972a11.183,11.183,0,0,0-2.968-.409c-1.893,0-2.968.819-2.968,2.1v.051c0,1.279,1.177,2.047,2.559,2.047C84.236,129.914,85.771,128.788,85.771,127.15Z" transform="translate(-50.308 -116.557)"/><path class="b" d="M98.8,129.558l.768-1.075a5.869,5.869,0,0,0,3.531,1.279c1.228,0,2.1-.614,2.1-1.586v-.051c0-1.023-1.177-1.433-2.559-1.791-1.586-.461-3.377-1.023-3.377-2.866v-.051c0-1.74,1.433-2.917,3.48-2.917a6.614,6.614,0,0,1,3.633,1.126l-.665,1.126a5.694,5.694,0,0,0-3.019-.972c-1.177,0-1.945.614-1.945,1.484v.051c0,.972,1.279,1.33,2.61,1.74,1.586.461,3.275,1.075,3.275,2.917v.051c0,1.945-1.586,3.019-3.633,3.019A6.984,6.984,0,0,1,98.8,129.558Z" transform="translate(-60.318 -116.508)"/><path class="b" d="M117.7,127.194V120.9h1.535v5.936c0,1.893,1.023,3.07,2.815,3.07a2.972,2.972,0,0,0,3.019-3.173V120.9h1.484v10.132h-1.484v-1.791a3.914,3.914,0,0,1-3.48,2C119.133,131.288,117.7,129.6,117.7,127.194Z" transform="translate(-69.546 -116.704)"/><path class="b" d="M140.151,120.748h1.535v2.661a4.306,4.306,0,0,1,4.145-2.815v1.638h-.154c-2.2,0-4.043,1.586-4.043,4.657v4.043H140.1V120.748Z" transform="translate(-80.483 -116.552)"/><path class="b" d="M152.1,125.822h0c0-2.968,2.047-5.322,4.861-5.322,3.019,0,4.759,2.405,4.759,5.373v.512h-8.034a3.547,3.547,0,0,0,3.582,3.429,4.323,4.323,0,0,0,3.224-1.433l.921.87a5.274,5.274,0,0,1-4.2,1.893A5.148,5.148,0,0,1,152.1,125.822Zm8.085-.614c-.154-1.842-1.228-3.48-3.224-3.48a3.447,3.447,0,0,0-3.275,3.48Z" transform="translate(-86.343 -116.508)"/><path class="b" d="M200.4,125.822h0c0-2.968,2.047-5.322,4.861-5.322,3.019,0,4.708,2.405,4.708,5.373v.512h-8.034a3.547,3.547,0,0,0,3.582,3.429,4.323,4.323,0,0,0,3.224-1.433l.921.87a5.274,5.274,0,0,1-4.2,1.893A5.107,5.107,0,0,1,200.4,125.822Zm8.034-.614c-.154-1.842-1.228-3.48-3.224-3.48a3.447,3.447,0,0,0-3.275,3.48Z" transform="translate(-109.926 -116.508)"/><path class="b" d="M222.8,120.656h1.535v1.689a3.7,3.7,0,0,1,3.275-1.945,3.457,3.457,0,0,1,3.275,2.047,4.024,4.024,0,0,1,3.582-2.047c2.354,0,3.787,1.586,3.787,4.094v6.294h-1.535v-5.936c0-1.945-.972-3.07-2.61-3.07a2.832,2.832,0,0,0-2.815,3.122v5.834H229.76V124.75c0-1.893-1.023-3.019-2.61-3.019a2.952,2.952,0,0,0-2.815,3.224v5.783H222.8V120.656Z" transform="translate(-120.863 -116.46)"/><path class="b" d="M257.8,120.7h1.535v2.047a4.56,4.56,0,0,1,3.889-2.252,4.962,4.962,0,0,1,4.861,5.271v.051a4.962,4.962,0,0,1-4.861,5.271,4.568,4.568,0,0,1-3.889-2.149v5.066H257.8Zm8.7,5.117h0a3.672,3.672,0,0,0-3.582-3.992,3.783,3.783,0,0,0-3.684,3.889v.051a3.8,3.8,0,0,0,3.684,3.94A3.582,3.582,0,0,0,266.5,125.822Z" transform="translate(-137.952 -116.508)"/><path class="b" d="M280.5,125.822h0a5.3,5.3,0,1,1,10.593-.051v.051a5.3,5.3,0,1,1-10.593,0Zm9.006,0h0a3.859,3.859,0,0,0-3.787-3.992,3.772,3.772,0,0,0-3.736,3.94v.051a3.765,3.765,0,1,0,7.522,0Z" transform="translate(-149.036 -116.508)"/><path class="b" d="M302.3,120.851h1.586l2.661,8.137,2.712-8.188h1.279l2.763,8.188,2.661-8.137h1.586l-3.582,10.235h-1.331l-2.712-8.034-2.763,8.034h-1.331Z" transform="translate(-159.68 -116.655)"/><path class="b" d="M333.4,125.822h0c0-2.968,2.047-5.322,4.861-5.322,3.019,0,4.708,2.405,4.708,5.373v.512h-8.034a3.547,3.547,0,0,0,3.582,3.429,4.323,4.323,0,0,0,3.224-1.433l.921.87a5.274,5.274,0,0,1-4.2,1.893A5.107,5.107,0,0,1,333.4,125.822Zm8.034-.614c-.154-1.842-1.228-3.48-3.224-3.48a3.447,3.447,0,0,0-3.275,3.48Z" transform="translate(-174.866 -116.508)"/><path class="b" d="M355.8,120.748h1.535v2.661a4.306,4.306,0,0,1,4.145-2.815v1.638h-.1c-2.2,0-4.043,1.586-4.043,4.657v4.043H355.8Z" transform="translate(-185.803 -116.552)"/><path class="b" d="M395.4,127.969h0c0-2.2,1.791-3.326,4.35-3.326a11,11,0,0,1,3.122.409v-.358c0-1.842-1.126-2.763-3.019-2.763a6.65,6.65,0,0,0-3.07.768l-.461-1.228a8.324,8.324,0,0,1,3.684-.87,4.317,4.317,0,0,1,3.275,1.126,4.091,4.091,0,0,1,1.023,2.968v6.192h-1.433v-1.535a4.483,4.483,0,0,1-3.684,1.74C397.293,131.142,395.4,130.016,395.4,127.969Zm7.471-.819v-.972a11.183,11.183,0,0,0-2.968-.409c-1.893,0-2.968.819-2.968,2.1v.051c0,1.279,1.177,2.047,2.559,2.047C401.336,129.914,402.871,128.788,402.871,127.15Z" transform="translate(-205.138 -116.557)"/><path class="b" d="M416.3,125.822h0a5.293,5.293,0,0,1,9.262-3.531l-1.023,1.075a4.005,4.005,0,0,0-3.07-1.535,3.755,3.755,0,0,0-3.633,3.94v.051a3.773,3.773,0,0,0,3.736,3.94,4.284,4.284,0,0,0,3.122-1.535l.972.921a5.28,5.28,0,0,1-4.145,1.945A5.22,5.22,0,0,1,416.3,125.822Z" transform="translate(-215.343 -116.508)"/><path class="b" d="M437.9,112.7h1.535v5.936a3.914,3.914,0,0,1,3.48-2,3.7,3.7,0,0,1,3.889,4.043v6.294h-1.535v-5.936c0-1.893-1.023-3.07-2.815-3.07a2.972,2.972,0,0,0-3.019,3.173v5.834H437.9Z" transform="translate(-225.89 -112.7)"/><path class="b" d="M460.1,113.3h1.74v1.689H460.1Zm.1,3.889h1.535v10.132H460.2Z" transform="translate(-236.729 -112.993)"/><path class="b" d="M467.4,125.822h0c0-2.968,2.047-5.322,4.861-5.322,3.019,0,4.708,2.405,4.708,5.373v.512h-8.034a3.547,3.547,0,0,0,3.582,3.429,4.323,4.323,0,0,0,3.224-1.433l.921.87a5.274,5.274,0,0,1-4.2,1.893A5.107,5.107,0,0,1,467.4,125.822Zm8.085-.614c-.154-1.842-1.228-3.48-3.224-3.48a3.447,3.447,0,0,0-3.275,3.48Z" transform="translate(-240.294 -116.508)"/><path class="b" d="M486.9,120.9h1.689l3.429,8.444,3.429-8.444h1.638l-4.4,10.235h-1.331Z" transform="translate(-249.815 -116.704)"/><path class="b" d="M507.5,125.822h0c0-2.968,2.047-5.322,4.861-5.322,3.019,0,4.708,2.405,4.708,5.373v.512h-8.034a3.547,3.547,0,0,0,3.582,3.429,4.323,4.323,0,0,0,3.224-1.433l.921.87a5.274,5.274,0,0,1-4.2,1.893A5.107,5.107,0,0,1,507.5,125.822Zm8.085-.614c-.154-1.842-1.228-3.48-3.224-3.48a3.447,3.447,0,0,0-3.275,3.48Z" transform="translate(-259.873 -116.508)"/><rect class="b" width="2.661" height="2.661" transform="translate(83.171 7.738) rotate(45)"/><rect class="b" width="2.661" height="2.661" transform="translate(182.446 7.738) rotate(45)"/></g></g></svg>